solid OpenSCAD_Model
  facet normal -1 0 0
    outer loop
      vertex 0 0 0.25
      vertex 0 69 0.25
      vertex 0 0 0
    endloop
  endfacet
  facet normal -1 0 0
    outer loop
      vertex 0 0 0
      vertex 0 69 0.25
      vertex 0 69 0
    endloop
  endfacet
  facet normal 0 0 1
    outer loop
      vertex 0 0 0.25
      vertex 54 0 0.25
      vertex 54 69 0.25
    endloop
  endfacet
  facet normal 0 0 1
    outer loop
      vertex 0 69 0.25
      vertex 0 0 0.25
      vertex 54 69 0.25
    endloop
  endfacet
  facet normal 0 -1 0
    outer loop
      vertex 0 0 0
      vertex 54 0 0
      vertex 54 0 0.25
    endloop
  endfacet
  facet normal 0 -1 0
    outer loop
      vertex 0 0 0.25
      vertex 0 0 0
      vertex 54 0 0.25
    endloop
  endfacet
  facet normal 0 0 -1
    outer loop
      vertex 0 69 0
      vertex 54 69 0
      vertex 0 0 0
    endloop
  endfacet
  facet normal 0 0 -1
    outer loop
      vertex 0 0 0
      vertex 54 69 0
      vertex 54 0 0
    endloop
  endfacet
  facet normal 0 1 0
    outer loop
      vertex 0 69 0.25
      vertex 54 69 0.25
      vertex 0 69 0
    endloop
  endfacet
  facet normal 0 1 0
    outer loop
      vertex 0 69 0
      vertex 54 69 0.25
      vertex 54 69 0
    endloop
  endfacet
  facet normal 1 0 0
    outer loop
      vertex 54 0 0
      vertex 54 69 0
      vertex 54 69 0.25
    endloop
  endfacet
  facet normal 1 0 0
    outer loop
      vertex 54 0 0.25
      vertex 54 0 0
      vertex 54 69 0.25
    endloop
  endfacet
endsolid OpenSCAD_Model
